# xmcd CD database file
# Copyright (C) 1993-1998 Ti Kan
#
# Track frame offsets:
# 150
# 14879
# 28383
# 43845
# 58890
# 77702
# 90363
# 107724
# 123086
# 145008
# 156852
# 177581
# 190840
# 205920
# 221556
# 239222
# 252624
#
# Disc length: 3648 seconds
#
# Revision: 1
# Processed by: cddbd v1.4b41PL1 Copyright (c) Steve Scherf et al.
# Submitted via: MediaSauce 2.0 http://www.flatcracker.com
#
DISCID=030e3e11
DTITLE=Pousette-Dart Band - It's About Time
DYEAR=1900
DGENRE=
TTITLE0=She Looks Real Good To Me
TTITLE1=It's About Time
TTITLE2=Amazing to Me
TTITLE3=Ready to Fly
TTITLE4=The Real Thing
TTITLE5=Better Word for Love
TTITLE6=Waiting Game
TTITLE7=Take a Chance on Love
TTITLE8=Oklahoma
TTITLE9=Close Encounters of the Worst Kind
TTITLE10=Walking to a Different Rhythm
TTITLE11=I'm the Man for You
TTITLE12=Maybelline
TTITLE13=I'm Going to Love You (Tonight)
TTITLE14=Tug of War
TTITLE15=Dawn
TTITLE16=You're a Dog
EXTD=
EXTT0=
EXTT1=
EXTT2=
EXTT3=
EXTT4=
EXTT5=
EXTT6=
EXTT7=
EXTT8=
EXTT9=
EXTT10=
EXTT11=
EXTT12=
EXTT13=
EXTT14=
EXTT15=
EXTT16=
PLAYORDER=
